<svg width="233" height="44" viewBox="0 0 233 44" fill="none" xmlns="http://www.w3.org/2000/svg">
<path d="M3.36914 6.67188H6.1084L13.0957 24.0596L20.0684 6.67188H22.8223L14.1504 28H12.0117L3.36914 6.67188ZM2.47559 6.67188H4.89258L5.28809 19.6797V28H2.47559V6.67188ZM21.2842 6.67188H23.7012V28H20.8887V19.6797L21.2842 6.67188Z" fill="#110784"/>
<path d="M36.2695 18.0244H30.8643L30.835 15.7539H35.7422C36.5527 15.7539 37.2607 15.6172 37.8662 15.3438C38.4717 15.0703 38.9404 14.6797 39.2725 14.1719C39.6143 13.6543 39.7852 13.0391 39.7852 12.3262C39.7852 11.5449 39.6338 10.9102 39.3311 10.4219C39.0381 9.92383 38.584 9.5625 37.9688 9.33789C37.3633 9.10352 36.5918 8.98633 35.6543 8.98633H31.4941V28H28.667V6.67188H35.6543C36.748 6.67188 37.7246 6.78418 38.584 7.00879C39.4434 7.22363 40.1709 7.56543 40.7666 8.03418C41.3721 8.49316 41.8311 9.0791 42.1436 9.79199C42.4561 10.5049 42.6123 11.3594 42.6123 12.3555C42.6123 13.2344 42.3877 14.0303 41.9385 14.7432C41.4893 15.4463 40.8643 16.0225 40.0635 16.4717C39.2725 16.9209 38.3447 17.209 37.2803 17.3359L36.2695 18.0244ZM36.1377 28H29.751L31.3477 25.7002H36.1377C37.0361 25.7002 37.7979 25.5439 38.4229 25.2314C39.0576 24.9189 39.541 24.4795 39.873 23.9131C40.2051 23.3369 40.3711 22.6582 40.3711 21.877C40.3711 21.0859 40.2295 20.4023 39.9463 19.8262C39.6631 19.25 39.2188 18.8057 38.6133 18.4932C38.0078 18.1807 37.2266 18.0244 36.2695 18.0244H32.2412L32.2705 15.7539H37.7783L38.3789 16.5742C39.4043 16.6621 40.2734 16.9551 40.9863 17.4531C41.6992 17.9414 42.2412 18.5664 42.6123 19.3281C42.9932 20.0898 43.1836 20.9297 43.1836 21.8477C43.1836 23.1758 42.8906 24.2988 42.3047 25.2168C41.7285 26.125 40.9131 26.8184 39.8584 27.2969C38.8037 27.7656 37.5635 28 36.1377 28ZM56.2939 25.29V17.1309C56.2939 16.5059 56.167 15.9639 55.9131 15.5049C55.6689 15.0361 55.2979 14.6748 54.7998 14.4209C54.3018 14.167 53.6865 14.04 52.9541 14.04C52.2705 14.04 51.6699 14.1572 51.1523 14.3916C50.6445 14.626 50.2441 14.9336 49.9512 15.3145C49.668 15.6953 49.5264 16.1055 49.5264 16.5449H46.8164C46.8164 15.9785 46.9629 15.417 47.2559 14.8604C47.5488 14.3037 47.9688 13.8008 48.5156 13.3516C49.0723 12.8926 49.7363 12.5312 50.5078 12.2676C51.2891 11.9941 52.1582 11.8574 53.1152 11.8574C54.2676 11.8574 55.2832 12.0527 56.1621 12.4434C57.0508 12.834 57.7441 13.4248 58.2422 14.2158C58.75 14.9971 59.0039 15.9785 59.0039 17.1602V24.543C59.0039 25.0703 59.0479 25.6318 59.1357 26.2275C59.2334 26.8232 59.375 27.3359 59.5605 27.7656V28H56.7334C56.5967 27.6875 56.4893 27.2725 56.4111 26.7549C56.333 26.2275 56.2939 25.7393 56.2939 25.29ZM56.7627 18.3906L56.792 20.2949H54.0527C53.2812 20.2949 52.5928 20.3584 51.9873 20.4854C51.3818 20.6025 50.874 20.7832 50.4639 21.0273C50.0537 21.2715 49.7412 21.5791 49.5264 21.9502C49.3115 22.3115 49.2041 22.7363 49.2041 23.2246C49.2041 23.7227 49.3164 24.1768 49.541 24.5869C49.7656 24.9971 50.1025 25.3242 50.5518 25.5684C51.0107 25.8027 51.5723 25.9199 52.2363 25.9199C53.0664 25.9199 53.7988 25.7441 54.4336 25.3926C55.0684 25.041 55.5713 24.6113 55.9424 24.1035C56.3232 23.5957 56.5283 23.1025 56.5576 22.624L57.7148 23.9277C57.6465 24.3379 57.4609 24.792 57.1582 25.29C56.8555 25.7881 56.4502 26.2666 55.9424 26.7256C55.4443 27.1748 54.8486 27.5508 54.1553 27.8535C53.4717 28.1465 52.7002 28.293 51.8408 28.293C50.7666 28.293 49.8242 28.083 49.0137 27.6631C48.2129 27.2432 47.5879 26.6816 47.1387 25.9785C46.6992 25.2656 46.4795 24.4697 46.4795 23.5908C46.4795 22.7412 46.6455 21.9941 46.9775 21.3496C47.3096 20.6953 47.7881 20.1533 48.4131 19.7236C49.0381 19.2842 49.79 18.9521 50.6689 18.7275C51.5479 18.5029 52.5293 18.3906 53.6133 18.3906H56.7627ZM72.4951 23.7959C72.4951 23.4053 72.4072 23.0439 72.2314 22.7119C72.0654 22.3701 71.7188 22.0625 71.1914 21.7891C70.6738 21.5059 69.8926 21.2617 68.8477 21.0566C67.9688 20.8711 67.1729 20.6514 66.46 20.3975C65.7568 20.1436 65.1562 19.8359 64.6582 19.4746C64.1699 19.1133 63.7939 18.6885 63.5303 18.2002C63.2666 17.7119 63.1348 17.1406 63.1348 16.4863C63.1348 15.8613 63.2715 15.2705 63.5449 14.7139C63.8281 14.1572 64.2236 13.6641 64.7314 13.2344C65.249 12.8047 65.8691 12.4678 66.5918 12.2236C67.3145 11.9795 68.1201 11.8574 69.0088 11.8574C70.2783 11.8574 71.3623 12.082 72.2607 12.5312C73.1592 12.9805 73.8477 13.5811 74.3262 14.333C74.8047 15.0752 75.0439 15.9004 75.0439 16.8086H72.334C72.334 16.3691 72.2021 15.9443 71.9385 15.5342C71.6846 15.1143 71.3086 14.7676 70.8105 14.4941C70.3223 14.2207 69.7217 14.084 69.0088 14.084C68.2568 14.084 67.6465 14.2012 67.1777 14.4355C66.7188 14.6602 66.3818 14.9482 66.167 15.2998C65.9619 15.6514 65.8594 16.0225 65.8594 16.4131C65.8594 16.7061 65.9082 16.9697 66.0059 17.2041C66.1133 17.4287 66.2988 17.6387 66.5625 17.834C66.8262 18.0195 67.1973 18.1953 67.6758 18.3613C68.1543 18.5273 68.7646 18.6934 69.5068 18.8594C70.8057 19.1523 71.875 19.5039 72.7148 19.9141C73.5547 20.3242 74.1797 20.8271 74.5898 21.4229C75 22.0186 75.2051 22.7412 75.2051 23.5908C75.2051 24.2842 75.0586 24.9189 74.7656 25.4951C74.4824 26.0713 74.0674 26.5693 73.5205 26.9893C72.9834 27.3994 72.3389 27.7217 71.5869 27.9561C70.8447 28.1807 70.0098 28.293 69.082 28.293C67.6855 28.293 66.5039 28.0439 65.5371 27.5459C64.5703 27.0479 63.8379 26.4033 63.3398 25.6123C62.8418 24.8213 62.5928 23.9863 62.5928 23.1074H65.3174C65.3564 23.8496 65.5713 24.4404 65.9619 24.8799C66.3525 25.3096 66.8311 25.6172 67.3975 25.8027C67.9639 25.9785 68.5254 26.0664 69.082 26.0664C69.8242 26.0664 70.4443 25.9688 70.9424 25.7734C71.4502 25.5781 71.8359 25.3096 72.0996 24.9678C72.3633 24.626 72.4951 24.2354 72.4951 23.7959ZM85.3418 28.293C84.2383 28.293 83.2373 28.1074 82.3389 27.7363C81.4502 27.3555 80.6836 26.8232 80.0391 26.1396C79.4043 25.4561 78.916 24.6455 78.5742 23.708C78.2324 22.7705 78.0615 21.7451 78.0615 20.6318V20.0166C78.0615 18.7275 78.252 17.5801 78.6328 16.5742C79.0137 15.5586 79.5312 14.6992 80.1855 13.9961C80.8398 13.293 81.582 12.7607 82.4121 12.3994C83.2422 12.0381 84.1016 11.8574 84.9902 11.8574C86.123 11.8574 87.0996 12.0527 87.9199 12.4434C88.75 12.834 89.4287 13.3809 89.9561 14.084C90.4834 14.7773 90.874 15.5977 91.1279 16.5449C91.3818 17.4824 91.5088 18.5078 91.5088 19.6211V20.8369H79.6729V18.625H88.7988V18.4199C88.7598 17.7168 88.6133 17.0332 88.3594 16.3691C88.1152 15.7051 87.7246 15.1582 87.1875 14.7285C86.6504 14.2988 85.918 14.084 84.9902 14.084C84.375 14.084 83.8086 14.2158 83.291 14.4795C82.7734 14.7334 82.3291 15.1143 81.958 15.6221C81.5869 16.1299 81.2988 16.75 81.0938 17.4824C80.8887 18.2148 80.7861 19.0596 80.7861 20.0166V20.6318C80.7861 21.3838 80.8887 22.0918 81.0938 22.7559C81.3086 23.4102 81.6162 23.9863 82.0166 24.4844C82.4268 24.9824 82.9199 25.373 83.4961 25.6562C84.082 25.9395 84.7461 26.0811 85.4883 26.0811C86.4453 26.0811 87.2559 25.8857 87.9199 25.4951C88.584 25.1045 89.165 24.582 89.6631 23.9277L91.3037 25.2314C90.9619 25.749 90.5273 26.2422 90 26.7109C89.4727 27.1797 88.8232 27.5605 88.0518 27.8535C87.29 28.1465 86.3867 28.293 85.3418 28.293Z" fill="#728BE4"/>
<path d="M110.845 17.3799V25.1875C110.581 25.5781 110.161 26.0176 109.585 26.5059C109.009 26.9844 108.213 27.4043 107.197 27.7656C106.191 28.1172 104.893 28.293 103.301 28.293C102.002 28.293 100.806 28.0684 99.7119 27.6191C98.6279 27.1602 97.6855 26.4961 96.8848 25.627C96.0938 24.748 95.4785 23.6836 95.0391 22.4336C94.6094 21.1738 94.3945 19.748 94.3945 18.1562V16.501C94.3945 14.9092 94.5801 13.4883 94.9512 12.2383C95.332 10.9883 95.8887 9.92871 96.6211 9.05957C97.3535 8.18066 98.252 7.5166 99.3164 7.06738C100.381 6.6084 101.602 6.37891 102.979 6.37891C104.609 6.37891 105.972 6.66211 107.065 7.22852C108.169 7.78516 109.028 8.55664 109.644 9.54297C110.269 10.5293 110.669 11.6523 110.845 12.9121H108.018C107.891 12.1406 107.637 11.4375 107.256 10.8027C106.885 10.168 106.353 9.66016 105.659 9.2793C104.966 8.88867 104.072 8.69336 102.979 8.69336C101.992 8.69336 101.138 8.87402 100.415 9.23535C99.6924 9.59668 99.0967 10.1143 98.6279 10.7881C98.1592 11.4619 97.8076 12.2773 97.5732 13.2344C97.3486 14.1914 97.2363 15.2705 97.2363 16.4717V18.1562C97.2363 19.3867 97.3779 20.4854 97.6611 21.4521C97.9541 22.4189 98.3691 23.2441 98.9062 23.9277C99.4434 24.6016 100.083 25.1143 100.825 25.4658C101.577 25.8174 102.407 25.9932 103.315 25.9932C104.321 25.9932 105.137 25.9102 105.762 25.7441C106.387 25.5684 106.875 25.3633 107.227 25.1289C107.578 24.8848 107.847 24.6553 108.032 24.4404V19.665H103.096V17.3799H110.845ZM121.699 28.293C120.596 28.293 119.595 28.1074 118.696 27.7363C117.808 27.3555 117.041 26.8232 116.396 26.1396C115.762 25.4561 115.273 24.6455 114.932 23.708C114.59 22.7705 114.419 21.7451 114.419 20.6318V20.0166C114.419 18.7275 114.609 17.5801 114.99 16.5742C115.371 15.5586 115.889 14.6992 116.543 13.9961C117.197 13.293 117.939 12.7607 118.77 12.3994C119.6 12.0381 120.459 11.8574 121.348 11.8574C122.48 11.8574 123.457 12.0527 124.277 12.4434C125.107 12.834 125.786 13.3809 126.313 14.084C126.841 14.7773 127.231 15.5977 127.485 16.5449C127.739 17.4824 127.866 18.5078 127.866 19.6211V20.8369H116.03V18.625H125.156V18.4199C125.117 17.7168 124.971 17.0332 124.717 16.3691C124.473 15.7051 124.082 15.1582 123.545 14.7285C123.008 14.2988 122.275 14.084 121.348 14.084C120.732 14.084 120.166 14.2158 119.648 14.4795C119.131 14.7334 118.687 15.1143 118.315 15.6221C117.944 16.1299 117.656 16.75 117.451 17.4824C117.246 18.2148 117.144 19.0596 117.144 20.0166V20.6318C117.144 21.3838 117.246 22.0918 117.451 22.7559C117.666 23.4102 117.974 23.9863 118.374 24.4844C118.784 24.9824 119.277 25.373 119.854 25.6562C120.439 25.9395 121.104 26.0811 121.846 26.0811C122.803 26.0811 123.613 25.8857 124.277 25.4951C124.941 25.1045 125.522 24.582 126.021 23.9277L127.661 25.2314C127.319 25.749 126.885 26.2422 126.357 26.7109C125.83 27.1797 125.181 27.5605 124.409 27.8535C123.647 28.1465 122.744 28.293 121.699 28.293ZM130.312 20.251V19.9141C130.312 18.7715 130.479 17.7119 130.811 16.7354C131.143 15.749 131.621 14.8945 132.246 14.1719C132.871 13.4395 133.628 12.873 134.517 12.4727C135.405 12.0625 136.401 11.8574 137.505 11.8574C138.618 11.8574 139.619 12.0625 140.508 12.4727C141.406 12.873 142.168 13.4395 142.793 14.1719C143.428 14.8945 143.911 15.749 144.243 16.7354C144.575 17.7119 144.741 18.7715 144.741 19.9141V20.251C144.741 21.3936 144.575 22.4531 144.243 23.4297C143.911 24.4062 143.428 25.2607 142.793 25.9932C142.168 26.7158 141.411 27.2822 140.522 27.6924C139.644 28.0928 138.647 28.293 137.534 28.293C136.421 28.293 135.42 28.0928 134.531 27.6924C133.643 27.2822 132.881 26.7158 132.246 25.9932C131.621 25.2607 131.143 24.4062 130.811 23.4297C130.479 22.4531 130.312 21.3936 130.312 20.251ZM133.022 19.9141V20.251C133.022 21.042 133.115 21.7891 133.301 22.4922C133.486 23.1855 133.765 23.8008 134.136 24.3379C134.517 24.875 134.99 25.2998 135.557 25.6123C136.123 25.915 136.782 26.0664 137.534 26.0664C138.276 26.0664 138.926 25.915 139.482 25.6123C140.049 25.2998 140.518 24.875 140.889 24.3379C141.26 23.8008 141.538 23.1855 141.724 22.4922C141.919 21.7891 142.017 21.042 142.017 20.251V19.9141C142.017 19.1328 141.919 18.3955 141.724 17.7021C141.538 16.999 141.255 16.3789 140.874 15.8418C140.503 15.2949 140.034 14.8652 139.468 14.5527C138.911 14.2402 138.257 14.084 137.505 14.084C136.763 14.084 136.108 14.2402 135.542 14.5527C134.985 14.8652 134.517 15.2949 134.136 15.8418C133.765 16.3789 133.486 16.999 133.301 17.7021C133.115 18.3955 133.022 19.1328 133.022 19.9141ZM154.775 12.1504V14.2305H146.206V12.1504H154.775ZM149.106 8.29785H151.816V24.0742C151.816 24.6113 151.899 25.0166 152.065 25.29C152.231 25.5635 152.446 25.7441 152.71 25.832C152.974 25.9199 153.257 25.9639 153.56 25.9639C153.784 25.9639 154.019 25.9443 154.263 25.9053C154.517 25.8564 154.707 25.8174 154.834 25.7881L154.849 28C154.634 28.0684 154.351 28.1318 153.999 28.1904C153.657 28.2588 153.242 28.293 152.754 28.293C152.09 28.293 151.479 28.1611 150.923 27.8975C150.366 27.6338 149.922 27.1943 149.59 26.5791C149.268 25.9541 149.106 25.1143 149.106 24.0596V8.29785ZM167.3 25.29V17.1309C167.3 16.5059 167.173 15.9639 166.919 15.5049C166.675 15.0361 166.304 14.6748 165.806 14.4209C165.308 14.167 164.692 14.04 163.96 14.04C163.276 14.04 162.676 14.1572 162.158 14.3916C161.65 14.626 161.25 14.9336 160.957 15.3145C160.674 15.6953 160.532 16.1055 160.532 16.5449H157.822C157.822 15.9785 157.969 15.417 158.262 14.8604C158.555 14.3037 158.975 13.8008 159.521 13.3516C160.078 12.8926 160.742 12.5312 161.514 12.2676C162.295 11.9941 163.164 11.8574 164.121 11.8574C165.273 11.8574 166.289 12.0527 167.168 12.4434C168.057 12.834 168.75 13.4248 169.248 14.2158C169.756 14.9971 170.01 15.9785 170.01 17.1602V24.543C170.01 25.0703 170.054 25.6318 170.142 26.2275C170.239 26.8232 170.381 27.3359 170.566 27.7656V28H167.739C167.603 27.6875 167.495 27.2725 167.417 26.7549C167.339 26.2275 167.3 25.7393 167.3 25.29ZM167.769 18.3906L167.798 20.2949H165.059C164.287 20.2949 163.599 20.3584 162.993 20.4854C162.388 20.6025 161.88 20.7832 161.47 21.0273C161.06 21.2715 160.747 21.5791 160.532 21.9502C160.317 22.3115 160.21 22.7363 160.21 23.2246C160.21 23.7227 160.322 24.1768 160.547 24.5869C160.771 24.9971 161.108 25.3242 161.558 25.5684C162.017 25.8027 162.578 25.9199 163.242 25.9199C164.072 25.9199 164.805 25.7441 165.439 25.3926C166.074 25.041 166.577 24.6113 166.948 24.1035C167.329 23.5957 167.534 23.1025 167.563 22.624L168.721 23.9277C168.652 24.3379 168.467 24.792 168.164 25.29C167.861 25.7881 167.456 26.2666 166.948 26.7256C166.45 27.1748 165.854 27.5508 165.161 27.8535C164.478 28.1465 163.706 28.293 162.847 28.293C161.772 28.293 160.83 28.083 160.02 27.6631C159.219 27.2432 158.594 26.6816 158.145 25.9785C157.705 25.2656 157.485 24.4697 157.485 23.5908C157.485 22.7412 157.651 21.9941 157.983 21.3496C158.315 20.6953 158.794 20.1533 159.419 19.7236C160.044 19.2842 160.796 18.9521 161.675 18.7275C162.554 18.5029 163.535 18.3906 164.619 18.3906H167.769ZM176.982 14.6406V28H174.272V12.1504H176.909L176.982 14.6406ZM181.934 12.0625L181.919 14.582C181.694 14.5332 181.479 14.5039 181.274 14.4941C181.079 14.4746 180.854 14.4648 180.601 14.4648C179.976 14.4648 179.424 14.5625 178.945 14.7578C178.467 14.9531 178.062 15.2266 177.729 15.5781C177.397 15.9297 177.134 16.3496 176.938 16.8379C176.753 17.3164 176.631 17.8438 176.572 18.4199L175.811 18.8594C175.811 17.9023 175.903 17.0039 176.089 16.1641C176.284 15.3242 176.582 14.582 176.982 13.9375C177.383 13.2832 177.891 12.7754 178.506 12.4141C179.131 12.043 179.873 11.8574 180.732 11.8574C180.928 11.8574 181.152 11.8818 181.406 11.9307C181.66 11.9697 181.836 12.0137 181.934 12.0625Z" fill="#777777"/>
<path d="M7.58203 36.4175H8.23828C8.2041 36.7319 8.1141 37.0133 7.96826 37.2617C7.82243 37.5101 7.61621 37.7072 7.34961 37.853C7.08301 37.9966 6.75033 38.0684 6.35156 38.0684C6.0599 38.0684 5.79443 38.0137 5.55518 37.9043C5.3182 37.7949 5.11426 37.64 4.94336 37.4395C4.77246 37.2367 4.6403 36.994 4.54688 36.7114C4.45573 36.4266 4.41016 36.1099 4.41016 35.7612V35.2656C4.41016 34.917 4.45573 34.6014 4.54688 34.3188C4.6403 34.034 4.7736 33.7902 4.94678 33.5874C5.12223 33.3846 5.33301 33.2285 5.5791 33.1191C5.8252 33.0098 6.10205 32.9551 6.40967 32.9551C6.78564 32.9551 7.10352 33.0257 7.36328 33.167C7.62305 33.3083 7.82471 33.5042 7.96826 33.7549C8.1141 34.0033 8.2041 34.2915 8.23828 34.6196H7.58203C7.55013 34.3872 7.49089 34.1878 7.4043 34.0215C7.31771 33.8529 7.19466 33.723 7.03516 33.6318C6.87565 33.5407 6.66715 33.4951 6.40967 33.4951C6.18864 33.4951 5.99382 33.5373 5.8252 33.6216C5.65885 33.7059 5.51872 33.8255 5.40479 33.9805C5.29313 34.1354 5.20882 34.3211 5.15186 34.5376C5.09489 34.7541 5.06641 34.9945 5.06641 35.2588V35.7612C5.06641 36.005 5.09147 36.234 5.1416 36.4482C5.19401 36.6624 5.27262 36.8504 5.37744 37.0122C5.48226 37.174 5.61556 37.3016 5.77734 37.395C5.93913 37.4862 6.13053 37.5317 6.35156 37.5317C6.63184 37.5317 6.85514 37.4873 7.02148 37.3984C7.18783 37.3096 7.31315 37.182 7.39746 37.0156C7.48405 36.8493 7.54557 36.6499 7.58203 36.4175ZM12.5059 34.3018V34.8247H10.6362V34.3018H12.5059ZM10.7285 34.3018V38H10.0962V34.3018H10.7285ZM13.0664 34.3018V38H12.4307V34.3018H13.0664ZM15.7139 35.0127V39.4219H15.0781V34.3018H15.6592L15.7139 35.0127ZM18.2056 36.1201V36.1919C18.2056 36.4608 18.1737 36.7103 18.1099 36.9404C18.0461 37.1683 17.9526 37.3665 17.8296 37.5352C17.7088 37.7038 17.5596 37.8348 17.3818 37.9282C17.2041 38.0216 17.0002 38.0684 16.77 38.0684C16.5353 38.0684 16.328 38.0296 16.1479 37.9521C15.9679 37.8747 15.8153 37.7619 15.6899 37.6138C15.5646 37.4657 15.4644 37.2879 15.3892 37.0806C15.3162 36.8732 15.2661 36.6396 15.2388 36.3799V35.9971C15.2661 35.7236 15.3174 35.4787 15.3926 35.2622C15.4678 35.0457 15.5669 34.8612 15.6899 34.7085C15.8153 34.5535 15.9668 34.4362 16.1445 34.3564C16.3223 34.2744 16.5273 34.2334 16.7598 34.2334C16.9922 34.2334 17.1984 34.279 17.3784 34.3701C17.5584 34.459 17.71 34.5866 17.833 34.7529C17.9561 34.9193 18.0483 35.1187 18.1099 35.3511C18.1737 35.5812 18.2056 35.8376 18.2056 36.1201ZM17.5698 36.1919V36.1201C17.5698 35.9355 17.5505 35.7624 17.5117 35.6006C17.473 35.4365 17.4126 35.293 17.3306 35.1699C17.2508 35.0446 17.1483 34.9466 17.0229 34.876C16.8976 34.8031 16.7484 34.7666 16.5752 34.7666C16.4157 34.7666 16.2767 34.7939 16.1582 34.8486C16.042 34.9033 15.9429 34.9774 15.8608 35.0708C15.7788 35.1619 15.7116 35.2668 15.6592 35.3853C15.609 35.5015 15.5715 35.6222 15.5464 35.7476V36.6328C15.592 36.7923 15.6558 36.9427 15.7378 37.084C15.8198 37.223 15.9292 37.3358 16.0659 37.4224C16.2026 37.5067 16.3747 37.5488 16.582 37.5488C16.7529 37.5488 16.8999 37.5135 17.0229 37.4429C17.1483 37.37 17.2508 37.2708 17.3306 37.1455C17.4126 37.0202 17.473 36.8766 17.5117 36.7148C17.5505 36.5508 17.5698 36.3765 17.5698 36.1919ZM22.1929 37.3677V35.4639C22.1929 35.318 22.1632 35.1916 22.104 35.0845C22.047 34.9751 21.9604 34.8908 21.8442 34.8315C21.728 34.7723 21.5845 34.7427 21.4136 34.7427C21.2541 34.7427 21.1139 34.77 20.9932 34.8247C20.8747 34.8794 20.7812 34.9512 20.7129 35.04C20.6468 35.1289 20.6138 35.2246 20.6138 35.3271H19.9814C19.9814 35.195 20.0156 35.064 20.084 34.9341C20.1523 34.8042 20.2503 34.6868 20.3779 34.582C20.5078 34.4749 20.6628 34.3906 20.8428 34.3291C21.0251 34.2653 21.2279 34.2334 21.4512 34.2334C21.7201 34.2334 21.957 34.279 22.1621 34.3701C22.3695 34.4613 22.5312 34.5991 22.6475 34.7837C22.766 34.966 22.8252 35.195 22.8252 35.4707V37.1934C22.8252 37.3164 22.8354 37.4474 22.856 37.5864C22.8787 37.7254 22.9118 37.8451 22.9551 37.9453V38H22.2954C22.2635 37.9271 22.2384 37.8302 22.2202 37.7095C22.202 37.5864 22.1929 37.4725 22.1929 37.3677ZM22.3022 35.7578L22.3091 36.2021H21.6699C21.4899 36.2021 21.3293 36.217 21.188 36.2466C21.0467 36.2739 20.9282 36.3161 20.8325 36.373C20.7368 36.43 20.6639 36.5018 20.6138 36.5884C20.5636 36.6727 20.5386 36.7718 20.5386 36.8857C20.5386 37.002 20.5648 37.1079 20.6172 37.2036C20.6696 37.2993 20.7482 37.3757 20.853 37.4326C20.9601 37.4873 21.0911 37.5146 21.2461 37.5146C21.4398 37.5146 21.6107 37.4736 21.7588 37.3916C21.9069 37.3096 22.0243 37.2093 22.1108 37.0908C22.1997 36.9723 22.2476 36.8573 22.2544 36.7456L22.5244 37.0498C22.5085 37.1455 22.4652 37.2515 22.3945 37.3677C22.3239 37.4839 22.2293 37.5955 22.1108 37.7026C21.9946 37.8075 21.8556 37.8952 21.6938 37.9658C21.5343 38.0342 21.3543 38.0684 21.1538 38.0684C20.9032 38.0684 20.6833 38.0194 20.4941 37.9214C20.3073 37.8234 20.1615 37.6924 20.0566 37.5283C19.9541 37.362 19.9028 37.1763 19.9028 36.9712C19.9028 36.7729 19.9416 36.5986 20.019 36.4482C20.0965 36.2956 20.2082 36.1691 20.354 36.0688C20.4998 35.9663 20.6753 35.8888 20.8804 35.8364C21.0854 35.784 21.3145 35.7578 21.5674 35.7578H22.3022ZM26.5562 36.373H25.3428L25.3359 35.8672H26.3271C26.5231 35.8672 26.686 35.8478 26.8159 35.8091C26.9481 35.7703 27.0472 35.7122 27.1133 35.6348C27.1794 35.5573 27.2124 35.4616 27.2124 35.3477C27.2124 35.2588 27.193 35.1813 27.1543 35.1152C27.1178 35.0469 27.062 34.991 26.9868 34.9478C26.9116 34.9022 26.8182 34.8691 26.7065 34.8486C26.5972 34.8258 26.4684 34.8145 26.3203 34.8145H25.5103V38H24.8779V34.3018H26.3203C26.555 34.3018 26.7658 34.3223 26.9526 34.3633C27.1418 34.4043 27.3024 34.467 27.4346 34.5513C27.569 34.6333 27.6715 34.7381 27.7422 34.8657C27.8128 34.9933 27.8481 35.1437 27.8481 35.3169C27.8481 35.4285 27.8254 35.5345 27.7798 35.6348C27.7342 35.735 27.667 35.8239 27.5781 35.9014C27.4893 35.9788 27.3799 36.0426 27.25 36.0928C27.1201 36.1406 26.9709 36.1714 26.8022 36.1851L26.5562 36.373ZM26.5562 38H25.1138L25.4282 37.4873H26.5562C26.7316 37.4873 26.8774 37.4657 26.9937 37.4224C27.1099 37.3768 27.1965 37.313 27.2534 37.231C27.3127 37.1466 27.3423 37.0464 27.3423 36.9302C27.3423 36.814 27.3127 36.7148 27.2534 36.6328C27.1965 36.5485 27.1099 36.4847 26.9937 36.4414C26.8774 36.3958 26.7316 36.373 26.5562 36.373H25.5957L25.6025 35.8672H26.8022L27.0312 36.0586C27.234 36.0745 27.4061 36.1247 27.5474 36.209C27.6886 36.2933 27.7957 36.4004 27.8687 36.5303C27.9416 36.6579 27.978 36.7969 27.978 36.9473C27.978 37.1204 27.945 37.2731 27.8789 37.4053C27.8151 37.5374 27.7217 37.6479 27.5986 37.7368C27.4756 37.8234 27.3263 37.8895 27.1509 37.9351C26.9754 37.9784 26.7772 38 26.5562 38ZM29.6582 36.1919V36.1133C29.6582 35.8467 29.6969 35.5994 29.7744 35.3716C29.8519 35.1414 29.9635 34.9421 30.1094 34.7734C30.2552 34.6025 30.4318 34.4704 30.6392 34.377C30.8465 34.2812 31.0789 34.2334 31.3364 34.2334C31.5962 34.2334 31.8298 34.2812 32.0371 34.377C32.2467 34.4704 32.4245 34.6025 32.5703 34.7734C32.7184 34.9421 32.8312 35.1414 32.9087 35.3716C32.9862 35.5994 33.0249 35.8467 33.0249 36.1133V36.1919C33.0249 36.4585 32.9862 36.7057 32.9087 36.9336C32.8312 37.1615 32.7184 37.3608 32.5703 37.5317C32.4245 37.7004 32.2479 37.8325 32.0405 37.9282C31.8354 38.0216 31.603 38.0684 31.3433 38.0684C31.0835 38.0684 30.8499 38.0216 30.6426 37.9282C30.4352 37.8325 30.2575 37.7004 30.1094 37.5317C29.9635 37.3608 29.8519 37.1615 29.7744 36.9336C29.6969 36.7057 29.6582 36.4585 29.6582 36.1919ZM30.2905 36.1133V36.1919C30.2905 36.3765 30.3122 36.5508 30.3555 36.7148C30.3988 36.8766 30.4637 37.0202 30.5503 37.1455C30.6392 37.2708 30.7497 37.37 30.8818 37.4429C31.014 37.5135 31.1678 37.5488 31.3433 37.5488C31.5164 37.5488 31.668 37.5135 31.7979 37.4429C31.93 37.37 32.0394 37.2708 32.126 37.1455C32.2126 37.0202 32.2775 36.8766 32.3208 36.7148C32.3664 36.5508 32.3892 36.3765 32.3892 36.1919V36.1133C32.3892 35.931 32.3664 35.759 32.3208 35.5972C32.2775 35.4331 32.2114 35.2884 32.1226 35.1631C32.036 35.0355 31.9266 34.9352 31.7944 34.8623C31.6646 34.7894 31.5119 34.7529 31.3364 34.7529C31.1632 34.7529 31.0106 34.7894 30.8784 34.8623C30.7485 34.9352 30.6392 35.0355 30.5503 35.1631C30.4637 35.2884 30.3988 35.4331 30.3555 35.5972C30.3122 35.759 30.2905 35.931 30.2905 36.1133ZM37.6069 34.3018V38H36.9746V34.3018H37.6069ZM37.3916 36.0005V36.52C37.264 36.5679 37.1341 36.6112 37.002 36.6499C36.8721 36.6864 36.7342 36.716 36.5884 36.7388C36.4448 36.7593 36.2887 36.7695 36.1201 36.7695C35.8285 36.7695 35.5755 36.7194 35.3613 36.6191C35.1471 36.5166 34.9819 36.3628 34.8657 36.1577C34.7495 35.9504 34.6914 35.6895 34.6914 35.375V34.2949H35.3237V35.375C35.3237 35.5801 35.3545 35.7464 35.416 35.874C35.4775 36.0016 35.5675 36.0962 35.686 36.1577C35.8045 36.217 35.9492 36.2466 36.1201 36.2466C36.2842 36.2466 36.438 36.2363 36.5815 36.2158C36.7274 36.193 36.8664 36.1634 36.9985 36.127C37.133 36.0905 37.264 36.0483 37.3916 36.0005ZM42.1343 35.9048V36.4175H40.1792V35.9048H42.1343ZM40.3125 34.3018V38H39.6802V34.3018H40.3125ZM42.647 34.3018V38H42.0112V34.3018H42.647ZM44.498 36.1919V36.1133C44.498 35.8467 44.5368 35.5994 44.6143 35.3716C44.6917 35.1414 44.8034 34.9421 44.9492 34.7734C45.0951 34.6025 45.2716 34.4704 45.479 34.377C45.6864 34.2812 45.9188 34.2334 46.1763 34.2334C46.436 34.2334 46.6696 34.2812 46.877 34.377C47.0866 34.4704 47.2643 34.6025 47.4102 34.7734C47.5583 34.9421 47.6711 35.1414 47.7485 35.3716C47.826 35.5994 47.8647 35.8467 47.8647 36.1133V36.1919C47.8647 36.4585 47.826 36.7057 47.7485 36.9336C47.6711 37.1615 47.5583 37.3608 47.4102 37.5317C47.2643 37.7004 47.0877 37.8325 46.8804 37.9282C46.6753 38.0216 46.4429 38.0684 46.1831 38.0684C45.9233 38.0684 45.6898 38.0216 45.4824 37.9282C45.2751 37.8325 45.0973 37.7004 44.9492 37.5317C44.8034 37.3608 44.6917 37.1615 44.6143 36.9336C44.5368 36.7057 44.498 36.4585 44.498 36.1919ZM45.1304 36.1133V36.1919C45.1304 36.3765 45.152 36.5508 45.1953 36.7148C45.2386 36.8766 45.3035 37.0202 45.3901 37.1455C45.479 37.2708 45.5895 37.37 45.7217 37.4429C45.8538 37.5135 46.0076 37.5488 46.1831 37.5488C46.3563 37.5488 46.5078 37.5135 46.6377 37.4429C46.7699 37.37 46.8792 37.2708 46.9658 37.1455C47.0524 37.0202 47.1174 36.8766 47.1606 36.7148C47.2062 36.5508 47.229 36.3765 47.229 36.1919V36.1133C47.229 35.931 47.2062 35.759 47.1606 35.5972C47.1174 35.4331 47.0513 35.2884 46.9624 35.1631C46.8758 35.0355 46.7664 34.9352 46.6343 34.8623C46.5044 34.7894 46.3517 34.7529 46.1763 34.7529C46.0031 34.7529 45.8504 34.7894 45.7183 34.8623C45.5884 34.9352 45.479 35.0355 45.3901 35.1631C45.3035 35.2884 45.2386 35.4331 45.1953 35.5972C45.152 35.759 45.1304 35.931 45.1304 36.1133ZM50.9736 35.6245V36.144H49.3057V35.6245H50.9736ZM53.2759 36.9985L54.9814 34.3018H55.6172V38H54.9814V35.3032L53.2759 38H52.647V34.3018H53.2759V36.9985ZM60.1411 35.9048V36.4175H58.186V35.9048H60.1411ZM58.3193 34.3018V38H57.687V34.3018H58.3193ZM60.6538 34.3018V38H60.0181V34.3018H60.6538ZM66.9243 36.2158V36.2876C66.9243 36.5474 66.8958 36.7866 66.8389 37.0054C66.7819 37.2218 66.6965 37.4098 66.5825 37.5693C66.4709 37.7288 66.3319 37.853 66.1655 37.9419C65.9992 38.0285 65.8066 38.0718 65.5879 38.0718C65.4079 38.0718 65.2495 38.0479 65.1128 38C64.9761 37.9499 64.8599 37.8781 64.7642 37.7847C64.6707 37.6912 64.5955 37.5796 64.5386 37.4497C64.4839 37.3175 64.4463 37.1694 64.4258 37.0054V35.3647C64.4463 35.1893 64.4839 35.0321 64.5386 34.8931C64.5955 34.7541 64.6707 34.6356 64.7642 34.5376C64.8599 34.4396 64.9749 34.3644 65.1094 34.312C65.2438 34.2596 65.401 34.2334 65.5811 34.2334C65.7588 34.2334 65.9183 34.2653 66.0596 34.3291C66.2031 34.3906 66.3285 34.4795 66.4355 34.5957C66.5449 34.7119 66.6349 34.8521 66.7056 35.0161C66.7785 35.1779 66.8332 35.3602 66.8696 35.563C66.9061 35.7658 66.9243 35.9834 66.9243 36.2158ZM66.292 36.2876V36.2158C66.292 36.0563 66.2806 35.9048 66.2578 35.7612C66.2373 35.6154 66.2043 35.4821 66.1587 35.3613C66.1154 35.2383 66.0584 35.1312 65.9878 35.04C65.9172 34.9489 65.8317 34.8783 65.7314 34.8281C65.6335 34.778 65.5207 34.7529 65.3931 34.7529C65.2563 34.7529 65.1424 34.77 65.0513 34.8042C64.9624 34.8384 64.8929 34.884 64.8428 34.9409C64.7926 34.9956 64.7562 35.0537 64.7334 35.1152V37.2583C64.7607 37.3084 64.8006 37.3563 64.853 37.4019C64.9054 37.4451 64.9761 37.4816 65.0649 37.5112C65.1538 37.5386 65.2655 37.5522 65.3999 37.5522C65.5594 37.5522 65.695 37.5203 65.8066 37.4565C65.9206 37.3905 66.0129 37.2993 66.0835 37.1831C66.1564 37.0669 66.2088 36.9325 66.2407 36.7798C66.2749 36.6271 66.292 36.4631 66.292 36.2876ZM62.5322 36.2876V36.2158C62.5322 35.9834 62.5505 35.7658 62.5869 35.563C62.6234 35.3602 62.6781 35.1779 62.751 35.0161C62.8239 34.8521 62.9139 34.7119 63.021 34.5957C63.1304 34.4795 63.2557 34.3906 63.397 34.3291C63.5405 34.2653 63.7012 34.2334 63.8789 34.2334C64.0544 34.2334 64.207 34.2596 64.3369 34.312C64.4691 34.3644 64.5807 34.4396 64.6719 34.5376C64.763 34.6356 64.8359 34.7541 64.8906 34.8931C64.9453 35.0321 64.984 35.1893 65.0068 35.3647V36.9404C64.9863 37.1136 64.9487 37.2697 64.894 37.4087C64.8394 37.5477 64.7664 37.6673 64.6753 37.7676C64.5841 37.8656 64.4714 37.9408 64.3369 37.9932C64.2048 38.0456 64.0498 38.0718 63.8721 38.0718C63.6533 38.0718 63.4608 38.0285 63.2944 37.9419C63.1281 37.853 62.988 37.7288 62.874 37.5693C62.7624 37.4098 62.6769 37.2218 62.6177 37.0054C62.5607 36.7866 62.5322 36.5474 62.5322 36.2876ZM63.168 36.2158V36.2876C63.168 36.4631 63.1828 36.6271 63.2124 36.7798C63.2443 36.9325 63.2933 37.0669 63.3594 37.1831C63.4277 37.2993 63.5166 37.3905 63.626 37.4565C63.7354 37.5203 63.8698 37.5522 64.0293 37.5522C64.166 37.5522 64.2788 37.5352 64.3677 37.501C64.4565 37.4668 64.5272 37.4224 64.5796 37.3677C64.632 37.313 64.6719 37.256 64.6992 37.1968V35.1152C64.6764 35.0537 64.6388 34.9956 64.5864 34.9409C64.5363 34.884 64.4668 34.8384 64.3779 34.8042C64.2891 34.77 64.1751 34.7529 64.0361 34.7529C63.8766 34.7529 63.741 34.7917 63.6294 34.8691C63.5177 34.9466 63.4277 35.0526 63.3594 35.187C63.2933 35.3215 63.2443 35.4775 63.2124 35.6553C63.1828 35.8307 63.168 36.0176 63.168 36.2158ZM64.3848 39.4219V32.75H65.0205V39.4219H64.3848ZM68.584 36.1919V36.1133C68.584 35.8467 68.6227 35.5994 68.7002 35.3716C68.7777 35.1414 68.8893 34.9421 69.0352 34.7734C69.181 34.6025 69.3576 34.4704 69.5649 34.377C69.7723 34.2812 70.0047 34.2334 70.2622 34.2334C70.522 34.2334 70.7555 34.2812 70.9629 34.377C71.1725 34.4704 71.3503 34.6025 71.4961 34.7734C71.6442 34.9421 71.757 35.1414 71.8345 35.3716C71.9119 35.5994 71.9507 35.8467 71.9507 36.1133V36.1919C71.9507 36.4585 71.9119 36.7057 71.8345 36.9336C71.757 37.1615 71.6442 37.3608 71.4961 37.5317C71.3503 37.7004 71.1737 37.8325 70.9663 37.9282C70.7612 38.0216 70.5288 38.0684 70.269 38.0684C70.0093 38.0684 69.7757 38.0216 69.5684 37.9282C69.361 37.8325 69.1833 37.7004 69.0352 37.5317C68.8893 37.3608 68.7777 37.1615 68.7002 36.9336C68.6227 36.7057 68.584 36.4585 68.584 36.1919ZM69.2163 36.1133V36.1919C69.2163 36.3765 69.238 36.5508 69.2812 36.7148C69.3245 36.8766 69.3895 37.0202 69.4761 37.1455C69.5649 37.2708 69.6755 37.37 69.8076 37.4429C69.9398 37.5135 70.0936 37.5488 70.269 37.5488C70.4422 37.5488 70.5938 37.5135 70.7236 37.4429C70.8558 37.37 70.9652 37.2708 71.0518 37.1455C71.1383 37.0202 71.2033 36.8766 71.2466 36.7148C71.2922 36.5508 71.3149 36.3765 71.3149 36.1919V36.1133C71.3149 35.931 71.2922 35.759 71.2466 35.5972C71.2033 35.4331 71.1372 35.2884 71.0483 35.1631C70.9618 35.0355 70.8524 34.9352 70.7202 34.8623C70.5903 34.7894 70.4377 34.7529 70.2622 34.7529C70.089 34.7529 69.9364 34.7894 69.8042 34.8623C69.6743 34.9352 69.5649 35.0355 69.4761 35.1631C69.3895 35.2884 69.3245 35.4331 69.2812 35.5972C69.238 35.759 69.2163 35.931 69.2163 36.1133ZM74.376 35.0127V39.4219H73.7402V34.3018H74.3213L74.376 35.0127ZM76.8677 36.1201V36.1919C76.8677 36.4608 76.8358 36.7103 76.772 36.9404C76.7082 37.1683 76.6147 37.3665 76.4917 37.5352C76.3709 37.7038 76.2217 37.8348 76.0439 37.9282C75.8662 38.0216 75.6623 38.0684 75.4321 38.0684C75.1974 38.0684 74.9901 38.0296 74.8101 37.9521C74.63 37.8747 74.4774 37.7619 74.3521 37.6138C74.2267 37.4657 74.1265 37.2879 74.0513 37.0806C73.9784 36.8732 73.9282 36.6396 73.9009 36.3799V35.9971C73.9282 35.7236 73.9795 35.4787 74.0547 35.2622C74.1299 35.0457 74.229 34.8612 74.3521 34.7085C74.4774 34.5535 74.6289 34.4362 74.8066 34.3564C74.9844 34.2744 75.1895 34.2334 75.4219 34.2334C75.6543 34.2334 75.8605 34.279 76.0405 34.3701C76.2205 34.459 76.3721 34.5866 76.4951 34.7529C76.6182 34.9193 76.7104 35.1187 76.772 35.3511C76.8358 35.5812 76.8677 35.8376 76.8677 36.1201ZM76.2319 36.1919V36.1201C76.2319 35.9355 76.2126 35.7624 76.1738 35.6006C76.1351 35.4365 76.0747 35.293 75.9927 35.1699C75.9129 35.0446 75.8104 34.9466 75.6851 34.876C75.5597 34.8031 75.4105 34.7666 75.2373 34.7666C75.0778 34.7666 74.9388 34.7939 74.8203 34.8486C74.7041 34.9033 74.605 34.9774 74.5229 35.0708C74.4409 35.1619 74.3737 35.2668 74.3213 35.3853C74.2712 35.5015 74.2336 35.6222 74.2085 35.7476V36.6328C74.2541 36.7923 74.3179 36.9427 74.3999 37.084C74.4819 37.223 74.5913 37.3358 74.728 37.4224C74.8647 37.5067 75.0368 37.5488 75.2441 37.5488C75.415 37.5488 75.562 37.5135 75.6851 37.4429C75.8104 37.37 75.9129 37.2708 75.9927 37.1455C76.0747 37.0202 76.1351 36.8766 76.1738 36.7148C76.2126 36.5508 76.2319 36.3765 76.2319 36.1919ZM80.8003 37.1592L82.0581 34.3018H82.6665L81.019 38H80.5815L78.9409 34.3018H79.5493L80.8003 37.1592ZM79.3647 34.3018V38H78.7324V34.3018H79.3647ZM82.2153 38V34.3018H82.8511V38H82.2153ZM87.0503 37.3677V35.4639C87.0503 35.318 87.0207 35.1916 86.9614 35.0845C86.9045 34.9751 86.8179 34.8908 86.7017 34.8315C86.5854 34.7723 86.4419 34.7427 86.271 34.7427C86.1115 34.7427 85.9714 34.77 85.8506 34.8247C85.7321 34.8794 85.6387 34.9512 85.5703 35.04C85.5042 35.1289 85.4712 35.2246 85.4712 35.3271H84.8389C84.8389 35.195 84.873 35.064 84.9414 34.9341C85.0098 34.8042 85.1077 34.6868 85.2354 34.582C85.3652 34.4749 85.5202 34.3906 85.7002 34.3291C85.8825 34.2653 86.0853 34.2334 86.3086 34.2334C86.5775 34.2334 86.8145 34.279 87.0195 34.3701C87.2269 34.4613 87.3887 34.5991 87.5049 34.7837C87.6234 34.966 87.6826 35.195 87.6826 35.4707V37.1934C87.6826 37.3164 87.6929 37.4474 87.7134 37.5864C87.7362 37.7254 87.7692 37.8451 87.8125 37.9453V38H87.1528C87.1209 37.9271 87.0959 37.8302 87.0776 37.7095C87.0594 37.5864 87.0503 37.4725 87.0503 37.3677ZM87.1597 35.7578L87.1665 36.2021H86.5273C86.3473 36.2021 86.1867 36.217 86.0454 36.2466C85.9041 36.2739 85.7856 36.3161 85.6899 36.373C85.5942 36.43 85.5213 36.5018 85.4712 36.5884C85.4211 36.6727 85.396 36.7718 85.396 36.8857C85.396 37.002 85.4222 37.1079 85.4746 37.2036C85.527 37.2993 85.6056 37.3757 85.7104 37.4326C85.8175 37.4873 85.9486 37.5146 86.1035 37.5146C86.2972 37.5146 86.4681 37.4736 86.6162 37.3916C86.7643 37.3096 86.8817 37.2093 86.9683 37.0908C87.0571 36.9723 87.105 36.8573 87.1118 36.7456L87.3818 37.0498C87.3659 37.1455 87.3226 37.2515 87.252 37.3677C87.1813 37.4839 87.0868 37.5955 86.9683 37.7026C86.8521 37.8075 86.7131 37.8952 86.5513 37.9658C86.3918 38.0342 86.2118 38.0684 86.0112 38.0684C85.7606 38.0684 85.5407 38.0194 85.3516 37.9214C85.1647 37.8234 85.0189 37.6924 84.9141 37.5283C84.8115 37.362 84.7603 37.1763 84.7603 36.9712C84.7603 36.7729 84.799 36.5986 84.8765 36.4482C84.9539 36.2956 85.0656 36.1691 85.2114 36.0688C85.3573 35.9663 85.5327 35.8888 85.7378 35.8364C85.9429 35.784 86.1719 35.7578 86.4248 35.7578H87.1597ZM89.7319 38V34.3018H90.3643V37.4805H92.0664V34.3018H92.7021V38H89.7319ZM93.1396 37.4805L93.0781 39.0972H92.5142V38H92.0322V37.4805H93.1396ZM95.5103 36.9985L97.2158 34.3018H97.8516V38H97.2158V35.3032L95.5103 38H94.8813V34.3018H95.5103V36.9985ZM99.6992 36.1919V36.1133C99.6992 35.8467 99.738 35.5994 99.8154 35.3716C99.8929 35.1414 100.005 34.9421 100.15 34.7734C100.296 34.6025 100.473 34.4704 100.68 34.377C100.888 34.2812 101.12 34.2334 101.377 34.2334C101.637 34.2334 101.871 34.2812 102.078 34.377C102.288 34.4704 102.465 34.6025 102.611 34.7734C102.759 34.9421 102.872 35.1414 102.95 35.3716C103.027 35.5994 103.066 35.8467 103.066 36.1133V36.1919C103.066 36.4585 103.027 36.7057 102.95 36.9336C102.872 37.1615 102.759 37.3608 102.611 37.5317C102.465 37.7004 102.289 37.8325 102.082 37.9282C101.876 38.0216 101.644 38.0684 101.384 38.0684C101.125 38.0684 100.891 38.0216 100.684 37.9282C100.476 37.8325 100.299 37.7004 100.15 37.5317C100.005 37.3608 99.8929 37.1615 99.8154 36.9336C99.738 36.7057 99.6992 36.4585 99.6992 36.1919ZM100.332 36.1133V36.1919C100.332 36.3765 100.353 36.5508 100.396 36.7148C100.44 36.8766 100.505 37.0202 100.591 37.1455C100.68 37.2708 100.791 37.37 100.923 37.4429C101.055 37.5135 101.209 37.5488 101.384 37.5488C101.557 37.5488 101.709 37.5135 101.839 37.4429C101.971 37.37 102.08 37.2708 102.167 37.1455C102.254 37.0202 102.319 36.8766 102.362 36.7148C102.407 36.5508 102.43 36.3765 102.43 36.1919V36.1133C102.43 35.931 102.407 35.759 102.362 35.5972C102.319 35.4331 102.252 35.2884 102.164 35.1631C102.077 35.0355 101.968 34.9352 101.835 34.8623C101.706 34.7894 101.553 34.7529 101.377 34.7529C101.204 34.7529 101.052 34.7894 100.919 34.8623C100.79 34.9352 100.68 35.0355 100.591 35.1631C100.505 35.2884 100.44 35.4331 100.396 35.5972C100.353 35.759 100.332 35.931 100.332 36.1133ZM107.368 35.9048V36.4175H105.413V35.9048H107.368ZM105.546 34.3018V38H104.914V34.3018H105.546ZM107.88 34.3018V38H107.245V34.3018H107.88ZM112.408 35.9048V36.4175H110.453V35.9048H112.408ZM110.586 34.3018V38H109.954V34.3018H110.586ZM112.92 34.3018V38H112.285V34.3018H112.92ZM117.12 37.3677V35.4639C117.12 35.318 117.09 35.1916 117.031 35.0845C116.974 34.9751 116.887 34.8908 116.771 34.8315C116.655 34.7723 116.511 34.7427 116.34 34.7427C116.181 34.7427 116.041 34.77 115.92 34.8247C115.801 34.8794 115.708 34.9512 115.64 35.04C115.574 35.1289 115.541 35.2246 115.541 35.3271H114.908C114.908 35.195 114.942 35.064 115.011 34.9341C115.079 34.8042 115.177 34.6868 115.305 34.582C115.435 34.4749 115.59 34.3906 115.77 34.3291C115.952 34.2653 116.155 34.2334 116.378 34.2334C116.647 34.2334 116.884 34.279 117.089 34.3701C117.296 34.4613 117.458 34.5991 117.574 34.7837C117.693 34.966 117.752 35.195 117.752 35.4707V37.1934C117.752 37.3164 117.762 37.4474 117.783 37.5864C117.806 37.7254 117.839 37.8451 117.882 37.9453V38H117.222C117.19 37.9271 117.165 37.8302 117.147 37.7095C117.129 37.5864 117.12 37.4725 117.12 37.3677ZM117.229 35.7578L117.236 36.2021H116.597C116.417 36.2021 116.256 36.217 116.115 36.2466C115.973 36.2739 115.855 36.3161 115.759 36.373C115.664 36.43 115.591 36.5018 115.541 36.5884C115.49 36.6727 115.465 36.7718 115.465 36.8857C115.465 37.002 115.492 37.1079 115.544 37.2036C115.596 37.2993 115.675 37.3757 115.78 37.4326C115.887 37.4873 116.018 37.5146 116.173 37.5146C116.367 37.5146 116.537 37.4736 116.686 37.3916C116.834 37.3096 116.951 37.2093 117.038 37.0908C117.126 36.9723 117.174 36.8573 117.181 36.7456L117.451 37.0498C117.435 37.1455 117.392 37.2515 117.321 37.3677C117.251 37.4839 117.156 37.5955 117.038 37.7026C116.921 37.8075 116.782 37.8952 116.621 37.9658C116.461 38.0342 116.281 38.0684 116.081 38.0684C115.83 38.0684 115.61 38.0194 115.421 37.9214C115.234 37.8234 115.088 37.6924 114.983 37.5283C114.881 37.362 114.83 37.1763 114.83 36.9712C114.83 36.7729 114.868 36.5986 114.946 36.4482C115.023 36.2956 115.135 36.1691 115.281 36.0688C115.427 35.9663 115.602 35.8888 115.807 35.8364C116.012 35.784 116.241 35.7578 116.494 35.7578H117.229ZM120.495 36.2363H121.179L120.109 38H119.425L120.495 36.2363ZM121.025 34.3018H122.57V38H121.938V34.8145H121.025C120.845 34.8145 120.698 34.8452 120.584 34.9067C120.47 34.966 120.387 35.0435 120.334 35.1392C120.282 35.2349 120.256 35.334 120.256 35.4365C120.256 35.5368 120.28 35.6336 120.328 35.7271C120.375 35.8182 120.451 35.8934 120.553 35.9526C120.656 36.0119 120.788 36.0415 120.95 36.0415H122.108V36.561H120.95C120.738 36.561 120.55 36.5326 120.386 36.4756C120.222 36.4186 120.083 36.34 119.969 36.2397C119.855 36.1372 119.768 36.0176 119.709 35.8809C119.65 35.7419 119.62 35.5915 119.62 35.4297C119.62 35.2679 119.651 35.1187 119.712 34.9819C119.776 34.8452 119.867 34.7256 119.986 34.623C120.107 34.5205 120.254 34.4419 120.427 34.3872C120.602 34.3302 120.802 34.3018 121.025 34.3018ZM128.805 37.5488C128.955 37.5488 129.094 37.5181 129.222 37.4565C129.349 37.395 129.454 37.3107 129.536 37.2036C129.618 37.0942 129.665 36.9701 129.676 36.8311H130.278C130.266 37.0498 130.192 37.2537 130.056 37.4429C129.921 37.6297 129.745 37.7812 129.526 37.8975C129.307 38.0114 129.067 38.0684 128.805 38.0684C128.527 38.0684 128.284 38.0194 128.077 37.9214C127.872 37.8234 127.701 37.689 127.564 37.5181C127.43 37.3472 127.328 37.1512 127.26 36.9302C127.194 36.7069 127.161 36.471 127.161 36.2227V36.0791C127.161 35.8307 127.194 35.596 127.26 35.375C127.328 35.1517 127.43 34.9546 127.564 34.7837C127.701 34.6128 127.872 34.4784 128.077 34.3804C128.284 34.2824 128.527 34.2334 128.805 34.2334C129.094 34.2334 129.347 34.2926 129.563 34.4111C129.78 34.5273 129.95 34.6868 130.073 34.8896C130.198 35.0902 130.266 35.318 130.278 35.5732H129.676C129.665 35.4206 129.622 35.2827 129.546 35.1597C129.473 35.0366 129.373 34.9386 129.246 34.8657C129.12 34.7905 128.973 34.7529 128.805 34.7529C128.611 34.7529 128.448 34.7917 128.316 34.8691C128.186 34.9443 128.082 35.0469 128.005 35.1768C127.93 35.3044 127.875 35.4468 127.841 35.604C127.809 35.759 127.793 35.9173 127.793 36.0791V36.2227C127.793 36.3844 127.809 36.5439 127.841 36.7012C127.873 36.8584 127.926 37.0008 128.001 37.1284C128.079 37.256 128.183 37.3586 128.312 37.436C128.445 37.5112 128.609 37.5488 128.805 37.5488ZM132.672 36.9985L134.378 34.3018H135.014V38H134.378V35.3032L132.672 38H132.043V34.3018H132.672V36.9985ZM138.509 37.5488C138.659 37.5488 138.798 37.5181 138.926 37.4565C139.053 37.395 139.158 37.3107 139.24 37.2036C139.322 37.0942 139.369 36.9701 139.38 36.8311H139.982C139.971 37.0498 139.896 37.2537 139.76 37.4429C139.625 37.6297 139.449 37.7812 139.23 37.8975C139.011 38.0114 138.771 38.0684 138.509 38.0684C138.231 38.0684 137.988 38.0194 137.781 37.9214C137.576 37.8234 137.405 37.689 137.268 37.5181C137.134 37.3472 137.032 37.1512 136.964 36.9302C136.898 36.7069 136.865 36.471 136.865 36.2227V36.0791C136.865 35.8307 136.898 35.596 136.964 35.375C137.032 35.1517 137.134 34.9546 137.268 34.7837C137.405 34.6128 137.576 34.4784 137.781 34.3804C137.988 34.2824 138.231 34.2334 138.509 34.2334C138.798 34.2334 139.051 34.2926 139.268 34.4111C139.484 34.5273 139.654 34.6868 139.777 34.8896C139.902 35.0902 139.971 35.318 139.982 35.5732H139.38C139.369 35.4206 139.326 35.2827 139.25 35.1597C139.178 35.0366 139.077 34.9386 138.95 34.8657C138.824 34.7905 138.677 34.7529 138.509 34.7529C138.315 34.7529 138.152 34.7917 138.02 34.8691C137.89 34.9443 137.786 35.0469 137.709 35.1768C137.634 35.3044 137.579 35.4468 137.545 35.604C137.513 35.759 137.497 35.9173 137.497 36.0791V36.2227C137.497 36.3844 137.513 36.5439 137.545 36.7012C137.577 36.8584 137.63 37.0008 137.706 37.1284C137.783 37.256 137.887 37.3586 138.017 37.436C138.149 37.5112 138.313 37.5488 138.509 37.5488ZM143.2 34.3018V38H142.564V34.3018H143.2ZM144.441 34.3018V34.8145H141.348V34.3018H144.441ZM147.324 38.0684C147.067 38.0684 146.833 38.0251 146.624 37.9385C146.416 37.8496 146.237 37.7254 146.087 37.5659C145.939 37.4064 145.825 37.2173 145.745 36.9985C145.665 36.7798 145.625 36.5405 145.625 36.2808V36.1372C145.625 35.8364 145.67 35.5687 145.759 35.334C145.848 35.097 145.968 34.8965 146.121 34.7324C146.274 34.5684 146.447 34.4442 146.641 34.3599C146.834 34.2756 147.035 34.2334 147.242 34.2334C147.507 34.2334 147.734 34.279 147.926 34.3701C148.119 34.4613 148.278 34.5889 148.401 34.7529C148.524 34.9147 148.615 35.1061 148.674 35.3271C148.734 35.5459 148.763 35.7852 148.763 36.0449V36.3286H146.001V35.8125H148.131V35.7646C148.122 35.6006 148.088 35.4411 148.028 35.2861C147.971 35.1312 147.88 35.0036 147.755 34.9033C147.63 34.8031 147.459 34.7529 147.242 34.7529C147.099 34.7529 146.966 34.7837 146.846 34.8452C146.725 34.9045 146.621 34.9933 146.535 35.1118C146.448 35.2303 146.381 35.375 146.333 35.5459C146.285 35.7168 146.261 35.9139 146.261 36.1372V36.2808C146.261 36.4562 146.285 36.6214 146.333 36.7764C146.383 36.929 146.455 37.0635 146.548 37.1797C146.644 37.2959 146.759 37.387 146.894 37.4531C147.03 37.5192 147.185 37.5522 147.358 37.5522C147.582 37.5522 147.771 37.5067 147.926 37.4155C148.081 37.3244 148.216 37.2025 148.333 37.0498L148.715 37.354C148.636 37.4748 148.534 37.5898 148.411 37.6992C148.288 37.8086 148.137 37.8975 147.957 37.9658C147.779 38.0342 147.568 38.0684 147.324 38.0684ZM152.627 37.1592L153.885 34.3018H154.494L152.846 38H152.409L150.768 34.3018H151.376L152.627 37.1592ZM151.192 34.3018V38H150.56V34.3018H151.192ZM154.042 38V34.3018H154.678V38H154.042ZM158.877 37.3677V35.4639C158.877 35.318 158.848 35.1916 158.789 35.0845C158.732 34.9751 158.645 34.8908 158.529 34.8315C158.413 34.7723 158.269 34.7427 158.098 34.7427C157.939 34.7427 157.799 34.77 157.678 34.8247C157.559 34.8794 157.466 34.9512 157.397 35.04C157.331 35.1289 157.298 35.2246 157.298 35.3271H156.666C156.666 35.195 156.7 35.064 156.769 34.9341C156.837 34.8042 156.935 34.6868 157.062 34.582C157.192 34.4749 157.347 34.3906 157.527 34.3291C157.71 34.2653 157.912 34.2334 158.136 34.2334C158.405 34.2334 158.642 34.279 158.847 34.3701C159.054 34.4613 159.216 34.5991 159.332 34.7837C159.451 34.966 159.51 35.195 159.51 35.4707V37.1934C159.51 37.3164 159.52 37.4474 159.541 37.5864C159.563 37.7254 159.596 37.8451 159.64 37.9453V38H158.98C158.948 37.9271 158.923 37.8302 158.905 37.7095C158.887 37.5864 158.877 37.4725 158.877 37.3677ZM158.987 35.7578L158.994 36.2021H158.354C158.174 36.2021 158.014 36.217 157.873 36.2466C157.731 36.2739 157.613 36.3161 157.517 36.373C157.421 36.43 157.348 36.5018 157.298 36.5884C157.248 36.6727 157.223 36.7718 157.223 36.8857C157.223 37.002 157.249 37.1079 157.302 37.2036C157.354 37.2993 157.433 37.3757 157.538 37.4326C157.645 37.4873 157.776 37.5146 157.931 37.5146C158.124 37.5146 158.295 37.4736 158.443 37.3916C158.591 37.3096 158.709 37.2093 158.795 37.0908C158.884 36.9723 158.932 36.8573 158.939 36.7456L159.209 37.0498C159.193 37.1455 159.15 37.2515 159.079 37.3677C159.008 37.4839 158.914 37.5955 158.795 37.7026C158.679 37.8075 158.54 37.8952 158.378 37.9658C158.219 38.0342 158.039 38.0684 157.838 38.0684C157.588 38.0684 157.368 38.0194 157.179 37.9214C156.992 37.8234 156.846 37.6924 156.741 37.5283C156.639 37.362 156.587 37.1763 156.587 36.9712C156.587 36.7729 156.626 36.5986 156.704 36.4482C156.781 36.2956 156.893 36.1691 157.039 36.0688C157.184 35.9663 157.36 35.8888 157.565 35.8364C157.77 35.784 157.999 35.7578 158.252 35.7578H158.987Z" fill="black"/>
</svg>
